<?xml version="1.0" standalone="no"?><!DOCTYPE svg PUBLIC "-//W3C//DTD SVG 1.1//EN" "http://www.w3.org/Graphics/SVG/1.1/DTD/svg11.dtd"><svg t="1720097120617" class="icon" viewBox="0 0 1024 1024" version="1.1" xmlns="http://www.w3.org/2000/svg" p-id="5324" xmlns:xlink="http://www.w3.org/1999/xlink" width="8000" height="8000"><path d="M528 1024H112a16 16 0 0 1-16-16V416c0-88.224 71.776-160 160-160h128c88.224 0 160 71.776 160 160v592a16 16 0 0 1-16 16zM128 992h384V416c0-70.576-57.424-128-128-128h-128c-70.576 0-128 57.424-128 128v576z" fill="#5D001E" p-id="5325"></path><path d="M176 960a16 16 0 0 1-16-16V480a16 16 0 1 1 32 0v464a16 16 0 0 1-16 16zM400 289.12a16 16 0 0 1-16-16V160h-128v112.96a16 16 0 1 1-32 0V144a16 16 0 0 1 16-16h160a16 16 0 0 1 16 16v129.12a16 16 0 0 1-16 16z" fill="#5D001E" p-id="5326"></path><path d="M448 160H192a16 16 0 0 1-16-16V80a16 16 0 0 1 16-16h256a16 16 0 0 1 16 16v64a16 16 0 0 1-16 16zM208 128h224V96H208v32z" fill="#5D001E" p-id="5327"></path><path d="M400 96H240a16 16 0 0 1-16-16V48c0-26.464 21.536-48 48-48h96c26.464 0 48 21.536 48 48v32a16 16 0 0 1-16 16z m-144-32h128V48c0-8.832-7.184-16-16-16h-96c-8.816 0-16 7.168-16 16v16zM176 432c-4.16 0-8.32-1.76-11.36-4.64-2.88-3.04-4.64-7.04-4.64-11.36 0-4.16 1.76-8.32 4.64-11.36 6.08-5.92 16.64-5.92 22.72 0 2.88 3.04 4.64 7.2 4.64 11.36 0 4.32-1.76 8.32-4.64 11.36-3.04 2.88-7.2 4.64-11.36 4.64zM528 816H304a16 16 0 0 1-16-16V480a16 16 0 0 1 16-16h224a16 16 0 0 1 16 16v320a16 16 0 0 1-16 16z m-208-32h192V496H320v288z" fill="#5D001E" p-id="5328"></path><path d="M368 688c-4.32 0-8.32-1.76-11.36-4.8A15.888 15.888 0 0 1 352 672c0-4.16 1.76-8.32 4.64-11.36 5.92-5.92 16.64-5.92 22.72 0 2.88 3.04 4.64 7.2 4.64 11.36s-1.76 8.32-4.64 11.36c-3.04 2.88-7.2 4.64-11.36 4.64zM368 752c-4.16 0-8.32-1.76-11.36-4.64-2.88-3.04-4.64-7.2-4.64-11.36s1.76-8.32 4.64-11.36c5.92-5.92 16.64-5.92 22.72 0 2.88 3.04 4.64 7.2 4.64 11.36s-1.76 8.32-4.64 11.36c-3.04 2.88-7.2 4.64-11.36 4.64zM368 624c-4.32 0-8.32-1.76-11.36-4.64-2.88-3.04-4.64-7.04-4.64-11.36 0-4.32 1.76-8.32 4.64-11.36 5.92-5.92 16.64-5.92 22.72 0 2.88 3.04 4.64 7.2 4.64 11.36s-1.76 8.32-4.64 11.36c-3.04 2.88-7.2 4.64-11.36 4.64zM432 688a16.16 16.16 0 0 1-16-16c0-4.16 1.76-8.32 4.64-11.36 6.08-5.92 16.8-5.92 22.72 0 2.88 3.04 4.64 7.2 4.64 11.36 0 4.32-1.76 8.32-4.64 11.36-3.04 2.88-7.04 4.64-11.36 4.64zM432 752c-4.32 0-8.32-1.76-11.36-4.64-2.88-3.04-4.64-7.04-4.64-11.36 0-4.32 1.76-8.32 4.64-11.36 5.76-5.92 16.8-5.92 22.72 0.16 2.88 2.88 4.64 6.88 4.64 11.2 0 4.16-1.76 8.32-4.64 11.36-3.04 2.88-7.04 4.64-11.36 4.64zM896 1024H672a16 16 0 1 1 0-32h224a16 16 0 1 1 0 32z" fill="#5D001E" p-id="5329"></path><path d="M784 1024a16 16 0 0 1-16-16V784a16 16 0 1 1 32 0v224a16 16 0 0 1-16 16z" fill="#5D001E" p-id="5330"></path><path d="M784 800c-79.392 0-144-64.592-144-144V496a16 16 0 1 1 32 0v160c0 61.76 50.24 112 112 112s112-50.24 112-112V496a16 16 0 1 1 32 0v160c0 79.408-64.608 144-144 144z" fill="#5D001E" p-id="5331"></path><path d="M912 576c-19.76 0-30.496-5.376-39.136-9.68-7.312-3.68-12.592-6.32-24.8-6.32s-17.504 2.64-24.816 6.32c-8.64 4.32-19.36 9.68-39.136 9.68-19.776 0-30.544-5.376-39.168-9.68-7.344-3.664-12.64-6.32-24.896-6.32s-17.536 2.656-24.88 6.32c-8.64 4.32-19.392 9.68-39.168 9.68a16 16 0 1 1 0-32c12.24 0 17.536-2.64 24.88-6.32 8.64-4.32 19.392-9.68 39.168-9.68s30.56 5.376 39.2 9.68c7.328 3.68 12.64 6.32 24.864 6.32 12.208 0 17.504-2.64 24.816-6.32 8.64-4.32 19.36-9.68 39.136-9.68s30.496 5.376 39.136 9.68c7.312 3.68 12.592 6.32 24.8 6.32a16 16 0 1 1 0 32zM784 640c-4.32 0-8.32-1.76-11.36-4.64-2.88-3.04-4.64-7.04-4.64-11.36 0-4.32 1.76-8.48 4.8-11.36 5.76-5.92 16.64-5.92 22.56 0 2.88 3.04 4.64 7.04 4.64 11.36 0 4.16-1.76 8.32-4.64 11.36-3.04 2.88-7.2 4.64-11.36 4.64zM848 640c-4.32 0-8.32-1.76-11.36-4.8a15.888 15.888 0 0 1 0.16-22.56c5.76-5.76 16.48-5.92 22.56 0 2.88 3.04 4.64 7.04 4.64 11.36 0 4.16-1.76 8.32-4.64 11.36-3.04 2.88-7.2 4.64-11.36 4.64zM720 640c-4.32 0-8.32-1.76-11.36-4.64-2.88-3.04-4.64-7.04-4.64-11.36 0-4.32 1.76-8.48 4.8-11.36 5.76-5.76 16.48-5.92 22.56 0 2.88 3.04 4.64 7.04 4.64 11.36 0 4.16-1.76 8.32-4.64 11.36-3.04 2.88-7.2 4.64-11.36 4.64z" fill="#5D001E" p-id="5332"></path></svg>